<svg version="1.1" id="Layer_1" xmlns="http://www.w3.org/2000/svg" xmlns:xlink="http://www.w3.org/1999/xlink" x="0px" y="0px"
	 width="100%" viewBox="0 0 5407 5391" enable-background="new 0 0 5407 5391" xml:space="preserve">
<path fill="#1B7701" opacity="1.000000" stroke="none" 
	d="
M2648.000000,4.000021 
	C2694.750244,4.000000 2741.500488,4.000000 2791.069336,5.345248 
	C2804.044434,6.906737 2814.201416,7.122978 2826.152100,7.549954 
	C2841.335449,7.800853 2854.725098,7.841016 2869.789307,8.264435 
	C2883.425537,9.568884 2895.397217,10.373747 2907.346680,11.431581 
	C2957.094727,15.835557 3006.968262,19.198029 3056.547363,25.047831 
	C3120.032715,32.538406 3183.104004,42.990902 3245.873779,55.371712 
	C3368.224854,79.504318 3488.165527,112.286140 3605.689697,153.885315 
	C3770.025635,212.054062 3926.863281,286.251038 4076.547119,375.549805 
	C4208.437988,454.233765 4334.183594,541.419739 4448.689941,644.257385 
	C4498.757812,689.223267 4548.992676,733.987061 4596.971191,781.199097 
	C4631.649902,815.323547 4667.167480,848.674805 4700.476074,884.096008 
	C4771.323242,959.436218 4835.906250,1040.011475 4895.884277,1124.273315 
	C4988.023926,1253.719238 5067.668457,1390.623657 5139.501953,1532.189453 
	C5147.334473,1547.624146 5155.044922,1563.148071 5162.042969,1578.970947 
	C5169.117676,1594.964600 5172.430176,1611.811768 5171.791992,1629.515991 
	C5171.299805,1643.175903 5166.382324,1655.559448 5162.215820,1668.129639 
	C5134.121094,1752.894165 5108.845215,1838.412354 5093.799805,1926.597778 
	C5087.181152,1965.388062 5082.687500,2004.285156 5087.143066,2043.927490 
	C5093.479492,2100.304688 5115.693359,2148.844971 5154.828613,2189.751465 
	C5159.435059,2194.566162 5164.265137,2199.168945 5169.028320,2203.832031 
	C5182.693848,2217.209961 5191.518555,2233.290283 5196.752930,2251.647705 
	C5201.990234,2270.015137 5202.237793,2288.646973 5199.379395,2307.147949 
	C5195.079590,2334.971680 5182.490723,2358.928223 5161.963379,2378.395752 
	C5143.205566,2396.185059 5122.695312,2397.180176 5102.859863,2380.826172 
	C5094.145020,2373.640869 5086.643555,2365.004150 5078.206055,2357.457031 
	C5059.351562,2340.591309 5040.989746,2323.060303 5021.118652,2307.467529 
	C4962.237793,2261.262939 4895.691895,2229.805908 4824.428223,2207.798584 
	C4780.471680,2194.223877 4735.443848,2185.115967 4690.522461,2175.621338 
	C4678.879883,2173.160889 4666.782715,2171.626221 4654.908203,2171.704590 
	C4613.881836,2171.975342 4591.041504,2199.334717 4597.624023,2240.006348 
	C4599.530273,2251.787354 4602.645508,2263.460205 4606.222656,2274.863770 
	C4611.998535,2293.276855 4618.472168,2311.476807 4624.902344,2329.677979 
	C4663.094727,2437.782471 4731.602051,2520.583496 4831.474121,2577.292236 
	C4864.613281,2596.109131 4899.562988,2610.703613 4935.358887,2623.510254 
	C4950.394531,2628.889648 4965.489258,2634.255615 4980.041504,2640.777344 
	C4989.047363,2644.813232 4997.880371,2650.073242 5005.386719,2656.439453 
	C5020.583008,2669.327393 5024.327637,2686.635010 5016.934082,2705.253662 
	C5014.250488,2712.011230 5010.655273,2718.486084 5006.844727,2724.703369 
	C4980.738770,2767.306885 4954.653320,2809.925537 4928.200684,2852.314209 
	C4886.560547,2919.038330 4843.357910,2984.723877 4795.980957,3047.564941 
	C4789.980957,3055.523682 4783.777832,3063.514160 4776.585938,3070.351318 
	C4762.116699,3084.106689 4745.268555,3084.566650 4729.886719,3071.575439 
	C4723.368164,3066.070068 4717.672363,3059.232666 4712.841797,3052.154785 
	C4700.077637,3033.450684 4687.854492,3014.371338 4675.657227,2995.287109 
	C4596.303711,2871.122314 4487.832520,2782.366943 4351.078613,2727.843018 
	C4282.038086,2700.316406 4210.279785,2683.426514 4136.947754,2672.695801 
	C4125.773438,2671.061035 4114.382324,2670.027344 4103.105469,2670.141846 
	C4070.724854,2670.470459 4058.241455,2683.320801 4058.583008,2715.356445 
	C4058.675293,2723.998047 4059.283203,2732.721191 4060.645996,2741.248291 
	C4069.072754,2793.969482 4081.522461,2845.687500 4100.161133,2895.808838 
	C4151.998047,3035.207031 4242.650879,3141.085449 4373.375977,3212.445068 
	C4407.356934,3230.994629 4442.702637,3246.403809 4478.975586,3259.820312 
	C4493.329590,3265.129150 4507.735352,3270.406250 4521.686523,3276.659424 
	C4530.733398,3280.714111 4539.457520,3285.872070 4547.512695,3291.666748 
	C4560.814453,3301.236572 4565.310059,3314.337891 4560.385742,3330.366943 
	C4556.437988,3343.221436 4550.810059,3355.267578 4542.768555,3366.008301 
	C4520.806641,3395.341797 4499.903809,3425.597900 4476.224609,3453.486572 
	C4436.986328,3499.698975 4396.042480,3544.468994 4355.519043,3589.579102 
	C4341.723145,3604.936279 4327.141113,3619.595947 4312.704590,3634.365234 
	C4304.282227,3642.982178 4294.816895,3650.315430 4283.833008,3655.541260 
	C4268.762695,3662.710938 4255.274414,3659.738037 4243.254883,3648.968750 
	C4239.837891,3645.906494 4236.831055,3642.130859 4234.484375,3638.178711 
	C4228.035645,3627.317871 4221.676270,3616.374023 4215.928711,3605.132568 
	C4199.560547,3573.118408 4184.135254,3540.608643 4167.197754,3508.903320 
	C4141.095215,3460.043213 4111.587402,3413.254639 4076.456299,3370.300293 
	C3968.364746,3238.136963 3834.749023,3140.446777 3676.876953,3075.812500 
	C3600.852295,3044.687988 3522.396484,3021.668945 3441.565430,3006.953613 
	C3432.484863,3005.300537 3422.959961,3004.508301 3413.793945,3005.238037 
	C3394.725342,3006.756592 3381.032227,3016.631592 3376.150635,3035.638672 
	C3373.361084,3046.500000 3371.664795,3057.879395 3371.296143,3069.085449 
	C3369.430664,3125.787109 3371.700684,3182.291260 3379.045898,3238.645752 
	C3389.082031,3315.650635 3407.520020,3390.432129 3436.237061,3462.566406 
	C3490.202637,3598.120850 3573.616699,3711.652588 3690.300293,3800.005615 
	C3753.417969,3847.797852 3822.521729,3884.685547 3896.620850,3912.407959 
	C3909.700439,3917.301514 3922.712402,3922.540283 3935.250488,3928.655273 
	C3942.929932,3932.400879 3950.265869,3937.424072 3956.655273,3943.110352 
	C3967.077148,3952.385010 3970.719482,3964.303711 3964.519775,3977.434326 
	C3960.291016,3986.390137 3955.432129,3995.255615 3949.507812,4003.150635 
	C3941.930420,4013.248047 3933.246338,4022.560303 3924.609619,4031.809570 
	C3868.168945,4092.249023 3808.868896,4149.837402 3749.260742,4207.110352 
	C3741.580322,4214.490234 3733.457275,4221.458984 3725.111816,4228.080078 
	C3719.410400,4232.604004 3713.275146,4236.800781 3706.796631,4240.083496 
	C3687.438477,4249.892578 3670.527832,4246.584961 3656.786621,4229.978516 
	C3650.020996,4221.802246 3643.977539,4212.906738 3638.549072,4203.776855 
	C3631.751465,4192.343262 3625.755615,4180.420410 3619.700195,4168.562500 
	C3540.204834,4012.891113 3431.040283,3881.810791 3292.269775,3775.700684 
	C3159.531982,3674.203613 3011.997070,3601.904297 2851.393066,3556.203613 
	C2775.662598,3534.654053 2698.594727,3519.871826 2620.318359,3511.069336 
	C2560.018799,3504.288330 2499.569092,3500.675293 2438.928955,3500.291992 
	C2425.674316,3500.208252 2412.342041,3501.549072 2399.159424,3503.163330 
	C2369.998535,3506.733398 2361.584229,3520.094482 2360.523682,3547.110107 
	C2360.080811,3558.390869 2361.150391,3569.740234 2361.742920,3581.047607 
	C2361.986572,3585.696777 2362.898438,3590.306641 2363.313721,3594.951660 
	C2369.916504,3668.818359 2383.511963,3741.403076 2404.377441,3812.536865 
	C2448.688477,3963.600342 2523.763916,4096.947754 2634.569824,4209.491699 
	C2707.659424,4283.727051 2791.205322,4343.806641 2883.083496,4392.554199 
	C2984.856445,4446.551758 3092.512451,4484.667969 3204.252930,4511.885742 
	C3230.111084,4518.183594 3255.823486,4525.149414 3281.381592,4532.569824 
	C3290.212402,4535.133789 3298.975342,4539.069336 3306.711670,4544.028320 
	C3322.511963,4554.157227 3325.141846,4568.139648 3314.569580,4583.294434 
	C3310.434570,4589.222168 3305.216064,4594.604980 3299.716309,4599.335449 
	C3252.205322,4640.198242 3203.649414,4679.768066 3152.803467,4716.449707 
	C3102.476318,4752.757324 3050.093506,4785.731445 2994.317383,4813.080566 
	C2984.193604,4818.044922 2973.759521,4822.838867 2962.950439,4825.852539 
	C2935.228516,4833.582031 2911.248779,4827.300781 2894.105957,4803.080566 
	C2887.237061,4793.375488 2881.686279,4782.617188 2876.509277,4771.869629 
	C2871.609131,4761.696289 2868.095947,4750.863770 2863.781738,4740.399414 
	C2797.983154,4580.809082 2707.437744,4437.806641 2581.920898,4317.974121 
	C2516.524902,4255.540039 2444.900391,4201.600098 2366.946533,4155.931641 
	C2250.556885,4087.746826 2125.755859,4040.627441 1995.207275,4008.188721 
	C1895.482544,3983.408691 1794.291870,3967.611084 1691.866699,3958.859131 
	C1623.456299,3953.013428 1554.920654,3950.612793 1486.383911,3949.233643 
	C1423.121704,3947.960449 1359.795898,3949.844971 1296.498047,3950.351562 
	C1251.187134,3950.714111 1205.876221,3951.082031 1160.565674,3951.479004 
	C1139.908203,3951.659912 1119.239136,3951.572266 1098.600952,3952.316895 
	C1090.735718,3952.600342 1082.612183,3953.908447 1075.186401,3956.446289 
	C1060.702881,3961.396729 1051.650757,3971.792969 1051.254883,3987.551758 
	C1050.972168,3998.807129 1051.232300,4010.301025 1053.176392,4021.349365 
	C1062.871338,4076.444580 1074.169678,4131.218262 1087.907227,4185.472168 
	C1117.422485,4302.036621 1156.897705,4414.907227 1211.475830,4522.301270 
	C1308.165894,4712.561523 1445.219849,4866.430176 1624.819580,4982.123535 
	C1708.640503,5036.118652 1797.640503,5079.571777 1891.896118,5111.935547 
	C1987.840698,5144.879883 2085.476318,5170.872559 2186.984863,5180.129395 
	C2198.071289,5181.140625 2209.301025,5184.256836 2219.688477,5188.360840 
	C2233.989014,5194.009277 2241.007568,5205.727539 2241.421143,5221.284668 
	C2241.820312,5236.299805 2237.016113,5249.268555 2224.430420,5257.648926 
	C2213.976562,5264.609863 2202.579102,5270.321289 2191.143311,5275.596680 
	C2178.468750,5281.443359 2164.820557,5285.271484 2152.414551,5291.585938 
	C2133.143555,5301.395508 2113.272949,5303.691895 2092.393555,5299.858398 
	C2075.374512,5296.733887 2058.346191,5293.614258 2041.423096,5290.017578 
	C1959.189453,5272.537598 1879.256470,5247.313477 1800.530518,5218.068359 
	C1720.599731,5188.375977 1642.703247,5153.815918 1564.478027,5119.996582 
	C1397.317871,5047.727539 1241.841919,4955.660645 1096.332764,4846.396973 
	C1001.376770,4775.094238 910.988037,4698.395508 824.180725,4617.425781 
	C813.410522,4607.379883 801.806030,4598.710938 788.324036,4592.419434 
	C770.058044,4583.895020 754.213684,4571.751953 739.637756,4557.873047 
	C719.754456,4538.940918 703.535828,4516.920898 686.467285,4495.592285 
	C673.983093,4479.992676 661.217590,4464.602539 648.134216,4449.502930 
	C632.429626,4431.377930 615.864746,4413.991211 600.362061,4395.700195 
	C564.123108,4352.942383 532.363159,4306.807617 499.946075,4261.173828 
	C414.112183,4140.343750 338.716095,4013.386475 274.267761,3879.861816 
	C218.593842,3764.516357 171.567719,3645.797852 133.078262,3523.697754 
	C98.609909,3414.354004 70.782478,3303.325928 51.517796,3190.267090 
	C43.801987,3144.984863 36.667164,3099.569580 30.783312,3054.019043 
	C24.984518,3009.127441 20.247698,2964.056885 16.634249,2918.937744 
	C13.393047,2878.466797 12.312745,2837.822754 10.583757,2795.391602 
	C10.940786,2783.198242 10.891247,2772.866699 11.087822,2762.539795 
	C11.189011,2757.224121 8.169809,2754.295410 4.000000,2752.000000 
	C4.000000,2725.249512 4.000000,2698.498779 5.358275,2669.149170 
	C10.611310,2664.168945 11.121719,2660.331787 11.091698,2656.288818 
	C10.999459,2643.867188 10.885223,2631.445312 10.791512,2617.209961 
	C11.548140,2567.440430 14.310153,2519.585449 19.289196,2471.899658 
	C24.749805,2419.601318 29.846558,2367.223145 37.170708,2315.170898 
	C49.511883,2227.463623 66.860672,2140.659668 88.056984,2054.627197 
	C139.402603,1846.223999 214.399689,1646.705322 313.470245,1456.348022 
	C398.311584,1293.331055 498.985962,1140.645630 616.138245,998.981140 
	C670.058899,933.778503 725.740112,870.080627 785.318848,809.941650 
	C842.551086,752.171265 903.146240,698.014893 965.441833,645.795166 
	C1008.324402,609.848572 1050.696655,573.133179 1095.359497,539.500183 
	C1234.563232,434.673462 1382.566895,343.986908 1539.344360,267.677338 
	C1664.082520,206.962570 1792.765137,156.406860 1925.630493,116.608177 
	C2014.940796,89.856026 2105.337646,67.360352 2197.258301,51.473667 
	C2240.540039,43.993237 2283.918945,36.919201 2327.434326,30.987078 
	C2369.638672,25.233696 2412.019775,20.605137 2454.425293,16.550184 
	C2492.177246,12.940209 2530.068848,10.791547 2569.724121,8.310804 
	C2586.213867,8.136335 2600.878418,7.649008 2617.269531,7.440935 
	C2625.978516,7.754470 2632.986572,8.146334 2639.930908,7.646386 
	C2642.693848,7.447457 2645.314453,5.274386 2648.000000,4.000021 
M1439.426392,1993.439331 
	C1746.211426,1677.880249 1869.833496,1548.401245 1882.417725,1529.446045 
	C1876.301636,1520.359497 1867.585205,1516.513794 1856.825073,1516.750732 
	C1854.159790,1516.809326 1851.493042,1516.835083 1848.827026,1516.833984 
	C1723.517456,1516.783447 1598.208008,1516.771729 1472.898438,1516.644409 
	C1440.239014,1516.611206 1407.577271,1516.404785 1374.921509,1515.929321 
	C1348.125122,1515.539307 1325.448608,1524.890991 1306.542236,1543.632935 
	C1301.341919,1548.787964 1296.306396,1554.143555 1291.560791,1559.718262 
	C1164.989624,1708.402222 1038.442383,1857.106567 911.987183,2005.889038 
	C903.259338,2016.157837 893.394653,2019.641479 879.494995,2014.296753 
	C879.494995,2009.160156 879.495117,2004.585327 879.494995,2000.010376 
	C879.491089,1852.036133 879.496277,1704.061768 879.450134,1556.087524 
	C879.448303,1550.105713 879.554138,1544.025024 878.573669,1538.163696 
	C876.747437,1527.246460 870.269226,1519.933472 859.108704,1518.154663 
	C851.927795,1517.009888 844.546814,1516.735474 837.254944,1516.729858 
	C728.607117,1516.645508 619.959290,1516.670654 511.311432,1516.671753 
	C501.979645,1516.671875 492.642059,1516.476440 483.317169,1516.733521 
	C460.128418,1517.372925 451.907776,1525.455566 451.167755,1547.981689 
	C451.124023,1549.312988 451.188049,1550.647583 451.184479,1551.980591 
	C451.130829,1571.976074 451.025848,1591.971558 451.025360,1611.967041 
	C451.015778,2010.568970 451.024292,2409.170898 451.001129,2807.772705 
	C450.999908,2828.425781 450.712280,2849.078857 450.646667,2869.731934 
	C450.634003,2873.719238 450.851166,2877.727783 451.280853,2881.691895 
	C452.576782,2893.647705 459.184418,2901.588379 470.799896,2904.091797 
	C479.178436,2905.896973 487.935028,2906.709717 496.517883,2906.675781 
	C537.836975,2906.512939 579.154907,2905.505127 620.472290,2905.557129 
	C691.119324,2905.646484 761.765381,2906.344238 832.412476,2906.658203 
	C839.702087,2906.690430 847.119690,2906.548096 854.261658,2905.274170 
	C869.603333,2902.538330 876.328918,2895.740479 878.766357,2880.433350 
	C879.909180,2873.256592 879.691528,2865.823486 879.670776,2858.507568 
	C879.440247,2777.192139 879.376038,2695.874756 878.710205,2614.562256 
	C878.456482,2583.578613 888.525269,2557.367432 909.984131,2535.045166 
	C948.784729,2494.683350 987.309509,2454.055420 1025.820557,2413.416748 
	C1041.395752,2396.980957 1056.618652,2380.211182 1072.028687,2363.618408 
	C1080.864624,2354.104248 1090.435059,2346.158936 1106.268311,2348.820312 
	C1117.348145,2369.281982 1129.126343,2390.086670 1140.037720,2411.336182 
	C1216.687866,2560.612061 1293.145142,2709.986572 1369.725220,2859.298340 
	C1373.975098,2867.584229 1378.488892,2875.763672 1383.367920,2883.692139 
	C1392.443359,2898.439941 1406.176270,2905.689941 1423.190308,2906.778809 
	C1430.494263,2907.245850 1437.848511,2906.981689 1445.179810,2906.959717 
	C1561.153442,2906.613525 1677.126953,2906.188965 1793.100830,2905.931641 
	C1830.423584,2905.848877 1867.747559,2906.244873 1905.070923,2906.274658 
	C1908.709961,2906.277588 1912.349609,2905.240967 1917.473877,2904.460693 
	C1910.332153,2888.241455 1902.526367,2874.461182 1894.238525,2860.890625 
	C1736.614136,2602.793945 1579.024780,2344.676025 1421.472290,2086.535400 
	C1416.619995,2078.584717 1412.153564,2070.393066 1407.671143,2062.223633 
	C1400.079468,2048.387939 1401.273560,2035.292236 1411.763550,2023.429810 
	C1420.146118,2013.949951 1428.875854,2004.777100 1439.426392,1993.439331 
M2060.500244,1953.999878 
	C2060.500488,2219.250000 2060.492432,2484.500000 2060.510742,2749.750000 
	C2060.512939,2784.405029 2060.552002,2819.060547 2060.797607,2853.714355 
	C2060.858643,2862.350098 2061.165527,2871.073975 2062.450928,2879.592529 
	C2065.127930,2897.332275 2070.716553,2902.629639 2088.094238,2904.413574 
	C2097.360107,2905.364258 2106.716064,2905.816895 2116.032959,2905.837891 
	C2223.995361,2906.083008 2331.957764,2906.238525 2439.920410,2906.286621 
	C2448.561523,2906.290283 2457.254150,2905.749023 2465.833252,2904.717529 
	C2482.638184,2902.696777 2487.358154,2898.055664 2489.668213,2880.761963 
	C2490.809814,2872.217285 2490.979248,2863.495361 2490.979736,2854.853516 
	C2490.986816,2730.893066 2490.871338,2606.932617 2490.839844,2482.972168 
	C2490.835205,2464.979980 2491.016602,2446.986084 2491.318848,2428.996582 
	C2491.419434,2423.015137 2491.638672,2416.945312 2492.733154,2411.089844 
	C2494.902100,2399.486816 2500.865234,2393.670654 2512.737549,2392.029785 
	C2521.955322,2390.755615 2531.322510,2390.117432 2540.631348,2390.026123 
	C2582.611328,2389.614258 2624.597900,2389.022461 2666.574463,2389.391113 
	C2723.231445,2389.888916 2779.848877,2390.306396 2836.295166,2384.182373 
	C2878.084717,2379.649170 2919.497314,2373.007568 2959.486572,2359.747803 
	C3077.852539,2320.499756 3161.537842,2244.149414 3206.391602,2126.933594 
	C3225.891357,2075.974609 3233.167725,2022.612305 3235.513672,1968.462524 
	C3237.394287,1925.055664 3234.746338,1881.845459 3227.582520,1838.997437 
	C3219.391846,1790.007080 3204.412354,1743.284180 3179.001709,1700.297607 
	C3141.039795,1636.077881 3086.319824,1590.917725 3018.501709,1561.419312 
	C2951.166016,1532.130737 2880.750732,1516.403320 2807.034424,1516.644653 
	C2753.052002,1516.821533 2699.069336,1516.832031 2645.086670,1516.838867 
	C2469.142578,1516.861206 2293.198730,1516.834473 2117.254639,1516.888916 
	C2108.604980,1516.891602 2099.886719,1516.902832 2091.319580,1517.917236 
	C2069.760986,1520.470093 2064.839355,1525.116211 2062.212158,1546.212891 
	C2060.900635,1556.746704 2060.788574,1567.476440 2060.774658,1578.118408 
	C2060.612549,1702.078735 2060.572510,1826.039307 2060.500244,1953.999878 
M3907.052246,1563.154907 
	C3906.347900,1555.206665 3906.205566,1547.158325 3904.813965,1539.332275 
	C3902.404785,1525.779175 3897.956543,1521.428223 3883.909912,1519.201172 
	C3874.740234,1517.747559 3865.366943,1516.961670 3856.082520,1516.939697 
	C3746.798096,1516.681519 3637.512939,1516.615234 3528.228027,1516.536255 
	C3521.567383,1516.531494 3514.876709,1516.500366 3508.251221,1517.072754 
	C3483.191162,1519.238037 3477.194824,1525.500732 3476.515381,1550.931519 
	C3476.106445,1566.245850 3476.496582,1581.581177 3476.496826,1596.906982 
	C3476.500244,1900.108887 3476.468262,2203.310791 3476.519775,2506.512695 
	C3476.533691,2587.809082 3476.920898,2669.105713 3476.891602,2750.402100 
	C3476.879150,2785.050537 3476.067139,2819.698730 3475.999023,2854.347656 
	C3475.982178,2862.929688 3476.644531,2871.684570 3478.416748,2880.059082 
	C3481.308594,2893.723633 3490.111816,2902.452637 3504.144043,2904.510498 
	C3513.974854,2905.952148 3523.981934,2906.885254 3533.907715,2906.865723 
	C3577.215088,2906.780029 3620.521240,2906.076904 3663.828857,2905.948486 
	C3724.460693,2905.769043 3785.093994,2906.016113 3845.725830,2905.810791 
	C3859.029785,2905.765869 3872.376465,2905.067139 3885.616943,2903.777588 
	C3895.911133,2902.775146 3902.980957,2896.745850 3904.415039,2886.113525 
	C3905.835449,2875.585693 3907.051025,2864.943115 3907.149902,2854.339355 
	C3907.529785,2813.693848 3907.488770,2773.043945 3907.490723,2732.395508 
	C3907.508545,2399.206543 3907.519287,2066.017822 3907.483154,1732.828857 
	C3907.477051,1677.520874 3907.234375,1622.212891 3907.052246,1563.154907 
z"/>
<path fill="#FFFFFF" opacity="1.000000" stroke="none" 
	d="
M10.279146,2797.255127 
	C12.312745,2837.822754 13.393047,2878.466797 16.634249,2918.937744 
	C20.247698,2964.056885 24.984518,3009.127441 30.783312,3054.019043 
	C36.667164,3099.569580 43.801987,3144.984863 51.517796,3190.267090 
	C70.782478,3303.325928 98.609909,3414.354004 133.078262,3523.697754 
	C171.567719,3645.797852 218.593842,3764.516357 274.267761,3879.861816 
	C338.716095,4013.386475 414.112183,4140.343750 499.946075,4261.173828 
	C532.363159,4306.807617 564.123108,4352.942383 600.362061,4395.700195 
	C615.864746,4413.991211 632.429626,4431.377930 648.134216,4449.502930 
	C661.217590,4464.602539 673.983093,4479.992676 686.467285,4495.592285 
	C703.535828,4516.920898 719.754456,4538.940918 739.637756,4557.873047 
	C754.213684,4571.751953 770.058044,4583.895020 788.324036,4592.419434 
	C801.806030,4598.710938 813.410522,4607.379883 824.180725,4617.425781 
	C910.988037,4698.395508 1001.376770,4775.094238 1096.332764,4846.396973 
	C1241.841919,4955.660645 1397.317871,5047.727539 1564.478027,5119.996582 
	C1642.703247,5153.815918 1720.599731,5188.375977 1800.530518,5218.068359 
	C1879.256470,5247.313477 1959.189453,5272.537598 2041.423096,5290.017578 
	C2058.346191,5293.614258 2075.374512,5296.733887 2092.393555,5299.858398 
	C2113.272949,5303.691895 2133.143555,5301.395508 2152.414551,5291.585938 
	C2164.820557,5285.271484 2178.468750,5281.443359 2191.143311,5275.596680 
	C2202.579102,5270.321289 2213.976562,5264.609863 2224.430420,5257.648926 
	C2237.016113,5249.268555 2241.820312,5236.299805 2241.421143,5221.284668 
	C2241.007568,5205.727539 2233.989014,5194.009277 2219.688477,5188.360840 
	C2209.301025,5184.256836 2198.071289,5181.140625 2186.984863,5180.129395 
	C2085.476318,5170.872559 1987.840698,5144.879883 1891.896118,5111.935547 
	C1797.640503,5079.571777 1708.640503,5036.118652 1624.819580,4982.123535 
	C1445.219849,4866.430176 1308.165894,4712.561523 1211.475830,4522.301270 
	C1156.897705,4414.907227 1117.422485,4302.036621 1087.907227,4185.472168 
	C1074.169678,4131.218262 1062.871338,4076.444580 1053.176392,4021.349365 
	C1051.232300,4010.301025 1050.972168,3998.807129 1051.254883,3987.551758 
	C1051.650757,3971.792969 1060.702881,3961.396729 1075.186401,3956.446289 
	C1082.612183,3953.908447 1090.735718,3952.600342 1098.600952,3952.316895 
	C1119.239136,3951.572266 1139.908203,3951.659912 1160.565674,3951.479004 
	C1205.876221,3951.082031 1251.187134,3950.714111 1296.498047,3950.351562 
	C1359.795898,3949.844971 1423.121704,3947.960449 1486.383911,3949.233643 
	C1554.920654,3950.612793 1623.456299,3953.013428 1691.866699,3958.859131 
	C1794.291870,3967.611084 1895.482544,3983.408691 1995.207275,4008.188721 
	C2125.755859,4040.627441 2250.556885,4087.746826 2366.946533,4155.931641 
	C2444.900391,4201.600098 2516.524902,4255.540039 2581.920898,4317.974121 
	C2707.437744,4437.806641 2797.983154,4580.809082 2863.781738,4740.399414 
	C2868.095947,4750.863770 2871.609131,4761.696289 2876.509277,4771.869629 
	C2881.686279,4782.617188 2887.237061,4793.375488 2894.105957,4803.080566 
	C2911.248779,4827.300781 2935.228516,4833.582031 2962.950439,4825.852539 
	C2973.759521,4822.838867 2984.193604,4818.044922 2994.317383,4813.080566 
	C3050.093506,4785.731445 3102.476318,4752.757324 3152.803467,4716.449707 
	C3203.649414,4679.768066 3252.205322,4640.198242 3299.716309,4599.335449 
	C3305.216064,4594.604980 3310.434570,4589.222168 3314.569580,4583.294434 
	C3325.141846,4568.139648 3322.511963,4554.157227 3306.711670,4544.028320 
	C3298.975342,4539.069336 3290.212402,4535.133789 3281.381592,4532.569824 
	C3255.823486,4525.149414 3230.111084,4518.183594 3204.252930,4511.885742 
	C3092.512451,4484.667969 2984.856445,4446.551758 2883.083496,4392.554199 
	C2791.205322,4343.806641 2707.659424,4283.727051 2634.569824,4209.491699 
	C2523.763916,4096.947754 2448.688477,3963.600342 2404.377441,3812.536865 
	C2383.511963,3741.403076 2369.916504,3668.818359 2363.313721,3594.951660 
	C2362.898438,3590.306641 2361.986572,3585.696777 2361.742920,3581.047607 
	C2361.150391,3569.740234 2360.080811,3558.390869 2360.523682,3547.110107 
	C2361.584229,3520.094482 2369.998535,3506.733398 2399.159424,3503.163330 
	C2412.342041,3501.549072 2425.674316,3500.208252 2438.928955,3500.291992 
	C2499.569092,3500.675293 2560.018799,3504.288330 2620.318359,3511.069336 
	C2698.594727,3519.871826 2775.662598,3534.654053 2851.393066,3556.203613 
	C3011.997070,3601.904297 3159.531982,3674.203613 3292.269775,3775.700684 
	C3431.040283,3881.810791 3540.204834,4012.891113 3619.700195,4168.562500 
	C3625.755615,4180.420410 3631.751465,4192.343262 3638.549072,4203.776855 
	C3643.977539,4212.906738 3650.020996,4221.802246 3656.786621,4229.978516 
	C3670.527832,4246.584961 3687.438477,4249.892578 3706.796631,4240.083496 
	C3713.275146,4236.800781 3719.410400,4232.604004 3725.111816,4228.080078 
	C3733.457275,4221.458984 3741.580322,4214.490234 3749.260742,4207.110352 
	C3808.868896,4149.837402 3868.168945,4092.249023 3924.609619,4031.809570 
	C3933.246338,4022.560303 3941.930420,4013.248047 3949.507812,4003.150635 
	C3955.432129,3995.255615 3960.291016,3986.390137 3964.519775,3977.434326 
	C3970.719482,3964.303711 3967.077148,3952.385010 3956.655273,3943.110352 
	C3950.265869,3937.424072 3942.929932,3932.400879 3935.250488,3928.655273 
	C3922.712402,3922.540283 3909.700439,3917.301514 3896.620850,3912.407959 
	C3822.521729,3884.685547 3753.417969,3847.797852 3690.300293,3800.005615 
	C3573.616699,3711.652588 3490.202637,3598.120850 3436.237061,3462.566406 
	C3407.520020,3390.432129 3389.082031,3315.650635 3379.045898,3238.645752 
	C3371.700684,3182.291260 3369.430664,3125.787109 3371.296143,3069.085449 
	C3371.664795,3057.879395 3373.361084,3046.500000 3376.150635,3035.638672 
	C3381.032227,3016.631592 3394.725342,3006.756592 3413.793945,3005.238037 
	C3422.959961,3004.508301 3432.484863,3005.300537 3441.565430,3006.953613 
	C3522.396484,3021.668945 3600.852295,3044.687988 3676.876953,3075.812500 
	C3834.749023,3140.446777 3968.364746,3238.136963 4076.456299,3370.300293 
	C4111.587402,3413.254639 4141.095215,3460.043213 4167.197754,3508.903320 
	C4184.135254,3540.608643 4199.560547,3573.118408 4215.928711,3605.132568 
	C4221.676270,3616.374023 4228.035645,3627.317871 4234.484375,3638.178711 
	C4236.831055,3642.130859 4239.837891,3645.906494 4243.254883,3648.968750 
	C4255.274414,3659.738037 4268.762695,3662.710938 4283.833008,3655.541260 
	C4294.816895,3650.315430 4304.282227,3642.982178 4312.704590,3634.365234 
	C4327.141113,3619.595947 4341.723145,3604.936279 4355.519043,3589.579102 
	C4396.042480,3544.468994 4436.986328,3499.698975 4476.224609,3453.486572 
	C4499.903809,3425.597900 4520.806641,3395.341797 4542.768555,3366.008301 
	C4550.810059,3355.267578 4556.437988,3343.221436 4560.385742,3330.366943 
	C4565.310059,3314.337891 4560.814453,3301.236572 4547.512695,3291.666748 
	C4539.457520,3285.872070 4530.733398,3280.714111 4521.686523,3276.659424 
	C4507.735352,3270.406250 4493.329590,3265.129150 4478.975586,3259.820312 
	C4442.702637,3246.403809 4407.356934,3230.994629 4373.375977,3212.445068 
	C4242.650879,3141.085449 4151.998047,3035.207031 4100.161133,2895.808838 
	C4081.522461,2845.687500 4069.072754,2793.969482 4060.645996,2741.248291 
	C4059.283203,2732.721191 4058.675293,2723.998047 4058.583008,2715.356445 
	C4058.241455,2683.320801 4070.724854,2670.470459 4103.105469,2670.141846 
	C4114.382324,2670.027344 4125.773438,2671.061035 4136.947754,2672.695801 
	C4210.279785,2683.426514 4282.038086,2700.316406 4351.078613,2727.843018 
	C4487.832520,2782.366943 4596.303711,2871.122314 4675.657227,2995.287109 
	C4687.854492,3014.371338 4700.077637,3033.450684 4712.841797,3052.154785 
	C4717.672363,3059.232666 4723.368164,3066.070068 4729.886719,3071.575439 
	C4745.268555,3084.566650 4762.116699,3084.106689 4776.585938,3070.351318 
	C4783.777832,3063.514160 4789.980957,3055.523682 4795.980957,3047.564941 
	C4843.357910,2984.723877 4886.560547,2919.038330 4928.200684,2852.314209 
	C4954.653320,2809.925537 4980.738770,2767.306885 5006.844727,2724.703369 
	C5010.655273,2718.486084 5014.250488,2712.011230 5016.934082,2705.253662 
	C5024.327637,2686.635010 5020.583008,2669.327393 5005.386719,2656.439453 
	C4997.880371,2650.073242 4989.047363,2644.813232 4980.041504,2640.777344 
	C4965.489258,2634.255615 4950.394531,2628.889648 4935.358887,2623.510254 
	C4899.562988,2610.703613 4864.613281,2596.109131 4831.474121,2577.292236 
	C4731.602051,2520.583496 4663.094727,2437.782471 4624.902344,2329.677979 
	C4618.472168,2311.476807 4611.998535,2293.276855 4606.222656,2274.863770 
	C4602.645508,2263.460205 4599.530273,2251.787354 4597.624023,2240.006348 
	C4591.041504,2199.334717 4613.881836,2171.975342 4654.908203,2171.704590 
	C4666.782715,2171.626221 4678.879883,2173.160889 4690.522461,2175.621338 
	C4735.443848,2185.115967 4780.471680,2194.223877 4824.428223,2207.798584 
	C4895.691895,2229.805908 4962.237793,2261.262939 5021.118652,2307.467529 
	C5040.989746,2323.060303 5059.351562,2340.591309 5078.206055,2357.457031 
	C5086.643555,2365.004150 5094.145020,2373.640869 5102.859863,2380.826172 
	C5122.695312,2397.180176 5143.205566,2396.185059 5161.963379,2378.395752 
	C5182.490723,2358.928223 5195.079590,2334.971680 5199.379395,2307.147949 
	C5202.237793,2288.646973 5201.990234,2270.015137 5196.752930,2251.647705 
	C5191.518555,2233.290283 5182.693848,2217.209961 5169.028320,2203.832031 
	C5164.265137,2199.168945 5159.435059,2194.566162 5154.828613,2189.751465 
	C5115.693359,2148.844971 5093.479492,2100.304688 5087.143066,2043.927490 
	C5082.687500,2004.285156 5087.181152,1965.388062 5093.799805,1926.597778 
	C5108.845215,1838.412354 5134.121094,1752.894165 5162.215820,1668.129639 
	C5166.382324,1655.559448 5171.299805,1643.175903 5171.791992,1629.515991 
	C5172.430176,1611.811768 5169.117676,1594.964600 5162.042969,1578.970947 
	C5155.044922,1563.148071 5147.334473,1547.624146 5139.501953,1532.189453 
	C5067.668457,1390.623657 4988.023926,1253.719238 4895.884277,1124.273315 
	C4835.906250,1040.011475 4771.323242,959.436218 4700.476074,884.096008 
	C4667.167480,848.674805 4631.649902,815.323547 4596.971191,781.199097 
	C4548.992676,733.987061 4498.757812,689.223267 4448.689941,644.257385 
	C4334.183594,541.419739 4208.437988,454.233765 4076.547119,375.549805 
	C3926.863281,286.251038 3770.025635,212.054062 3605.689697,153.885315 
	C3488.165527,112.286140 3368.224854,79.504318 3245.873779,55.371712 
	C3183.104004,42.990902 3120.032715,32.538406 3056.547363,25.047831 
	C3006.968262,19.198029 2957.094727,15.835557 2907.346680,11.431581 
	C2895.397217,10.373747 2883.425537,9.568884 2869.694824,7.295927 
	C2867.925537,5.944164 2868.000000,4.000000 2868.000000,4.000000 
	C3715.906982,4.000000 4563.813965,4.000000 5411.720703,4.000021 
	C5411.813965,4.573734 5411.987793,5.147426 5411.987793,5.721118 
	C5411.999512,1802.190796 5412.000000,3598.660645 5412.000000,5395.565430 
	C3609.333496,5395.565430 1806.666748,5395.565430 4.000000,5395.565430 
	C4.000000,4530.224609 4.000000,3664.986816 5.055326,2798.134277 
	C7.500149,2796.764404 8.889646,2797.009766 10.279146,2797.255127 
M5035.310059,2829.205811 
	C5002.285156,2887.739502 4969.230957,2946.256592 4936.308105,3004.847656 
	C4934.233398,3008.539307 4933.186035,3012.808350 4931.589355,3016.996338 
	C4934.313477,3017.626709 4935.612305,3018.280518 4936.833008,3018.158203 
	C4973.910645,3014.449707 5010.999023,3010.830811 5048.048340,3006.851807 
	C5099.001953,3001.379150 5149.978516,2996.231445 5201.272949,2995.607910 
	C5250.752441,2995.006348 5299.594727,3000.026855 5347.414062,3013.319092 
	C5351.100098,3014.343262 5354.822266,3015.233887 5359.154785,3016.347656 
	C5361.275391,3011.826416 5363.115723,3008.384277 5364.542969,3004.778320 
	C5373.192383,2982.925781 5377.423340,2960.004639 5379.494141,2936.776611 
	C5383.331055,2893.726562 5382.725586,2850.376953 5388.421387,2807.411621 
	C5390.442383,2792.168213 5382.933105,2783.463379 5368.011230,2780.741699 
	C5363.469727,2779.913330 5358.730469,2779.975830 5354.081055,2779.968018 
	C5343.426758,2779.950195 5332.771484,2780.080811 5322.118652,2780.261963 
	C5309.847168,2780.470947 5298.527344,2777.473633 5287.715332,2771.557617 
	C5282.606934,2768.762207 5276.788574,2766.299561 5271.084961,2765.719727 
	C5242.106445,2762.773926 5215.487793,2752.665039 5189.775879,2739.811523 
	C5169.546387,2729.699219 5149.658203,2718.906494 5129.534180,2708.579834 
	C5124.397949,2705.944092 5118.941895,2703.931641 5112.874512,2701.304199 
	C5086.110840,2743.136230 5061.546875,2784.979980 5035.310059,2829.205811 
M4846.826172,3447.901855 
	C4793.358398,3429.264160 4745.930176,3400.281250 4702.773926,3363.939209 
	C4698.908691,3360.684082 4694.617676,3357.935059 4690.124023,3354.659180 
	C4665.001953,3383.144043 4642.660156,3412.103516 4620.948242,3441.552734 
	C4580.959961,3495.790283 4567.010254,3517.407227 4561.582520,3533.012695 
	C4569.255371,3538.901367 4578.355469,3540.851807 4587.657227,3540.812256 
	C4599.607422,3540.761475 4611.739746,3540.752686 4623.467285,3538.783203 
	C4669.484863,3531.056396 4715.882324,3526.925293 4762.389160,3525.105957 
	C4854.220703,3521.514404 4946.005371,3522.831787 5037.606445,3531.418945 
	C5075.444824,3534.966553 5112.895996,3540.659180 5149.378418,3551.331787 
	C5172.885742,3558.208496 5195.956055,3566.578613 5219.856934,3574.489258 
	C5219.687988,3574.546631 5220.441406,3574.493164 5220.899414,3574.097412 
	C5222.398926,3572.802002 5223.888184,3571.469727 5225.208984,3569.997070 
	C5243.819824,3549.247559 5255.349609,3524.650879 5263.289551,3498.302002 
	C5271.756836,3470.199951 5275.675781,3441.121338 5280.484375,3412.255859 
	C5280.867188,3409.958008 5279.877441,3407.431396 5279.450684,3404.500244 
	C5269.941406,3406.138916 5261.776367,3408.215088 5254.468262,3413.354736 
	C5250.718750,3415.991211 5246.427246,3418.098633 5242.091797,3419.625000 
	C5172.884277,3443.987549 5102.625977,3463.508789 5029.006836,3469.486572 
	C4967.765625,3474.459961 4908.122070,3468.301758 4846.826172,3447.901855 
M4744.062988,4225.465820 
	C4780.990234,4238.899902 4817.416016,4253.543945 4852.590820,4271.120605 
	C4860.711426,4275.179199 4868.601074,4277.642090 4877.228516,4272.845703 
	C4878.069336,4271.887207 4879.109375,4270.997559 4879.788574,4269.887695 
	C4935.067871,4179.552246 4990.319336,4089.200928 5045.559082,3998.841797 
	C5046.598145,3997.142578 5047.559082,3995.381592 5048.393555,3993.574219 
	C5053.315430,3982.914307 5052.528809,3976.326416 5044.452148,3968.214844 
	C5041.320312,3965.069824 5037.074219,3963.033447 5033.115723,3960.342529 
	C5025.782715,3965.058838 5019.065918,3969.338379 5012.388672,3973.679199 
	C4859.994141,4072.744141 4694.513184,4134.379883 4512.421387,4148.533203 
	C4509.772949,4148.739258 4506.617676,4148.432617 4504.642578,4149.765137 
	C4502.219238,4151.399414 4499.879883,4154.310547 4499.277344,4157.058594 
	C4498.918945,4158.689453 4501.577637,4162.190430 4503.573242,4162.899414 
	C4509.181641,4164.892090 4515.099609,4166.145020 4520.982422,4167.210938 
	C4595.785645,4180.773438 4669.111328,4199.990723 4744.062988,4225.465820 
M2686.000000,5364.171387 
	C2728.600586,5364.170410 2771.201172,5364.191895 2813.801758,5364.144043 
	C2819.785645,5364.137207 2825.875488,5364.432617 2831.729004,5363.459961 
	C2841.735596,5361.795898 2850.848633,5358.252441 2854.646240,5346.674805 
	C2813.169189,5288.543457 2771.839111,5230.607910 2730.483887,5172.689941 
	C2728.554932,5169.988770 2726.437012,5167.419434 2724.337646,5164.845215 
	C2723.943604,5164.362305 2723.249756,5164.070801 2722.639404,5163.832031 
	C2722.075195,5163.611328 2721.436768,5163.580566 2719.429932,5163.201660 
	C2636.107910,5223.357910 2551.981445,5284.082031 2467.915771,5344.889160 
	C2466.441406,5345.955566 2465.686768,5348.017090 2464.632080,5349.561035 
	C2468.191162,5356.177246 2473.807617,5359.504883 2480.557861,5360.616699 
	C2487.746582,5361.800293 2495.049316,5362.867676 2502.312012,5362.934570 
	C2562.206543,5363.485352 2622.103760,5363.791504 2686.000000,5364.171387 
M3547.117188,4578.793945 
	C3541.458740,4572.357910 3535.800049,4565.922363 3530.195312,4559.547852 
	C3527.400635,4560.840332 3525.410156,4561.375488 3523.880127,4562.524414 
	C3459.336670,4610.989746 3399.691406,4665.190918 3340.260498,4719.632324 
	C3334.406006,4724.995117 3333.598145,4734.589355 3337.843018,4741.469238 
	C3341.511719,4747.415039 3347.566895,4749.003418 3353.569580,4747.199707 
	C3365.233398,4743.695312 3377.069824,4742.925293 3389.074707,4742.759766 
	C3457.663574,4741.813477 3526.251953,4740.101074 3594.840088,4740.126465 
	C3637.985840,4740.142090 3681.386719,4738.185059 3724.087891,4747.595215 
	C3731.934814,4749.324707 3736.374756,4745.825684 3738.510742,4737.462402 
	C3739.281006,4734.445312 3738.634277,4731.066406 3738.634277,4728.895020 
	C3737.293213,4727.346680 3736.950684,4726.674805 3736.403809,4726.371094 
	C3734.678223,4725.413574 3732.924561,4724.473145 3731.096436,4723.738770 
	C3686.010254,4705.633789 3646.323730,4679.013184 3611.375000,4645.619629 
	C3589.735596,4624.942871 3569.698242,4602.589844 3547.117188,4578.793945 
M4182.461914,4039.705811 
	C4171.489258,4031.067383 4160.586914,4022.337158 4149.524902,4013.814697 
	C4136.660156,4003.903809 4122.647461,4004.464600 4110.599609,4017.536865 
	C4088.512939,4041.500488 4065.375488,4064.505371 4043.568848,4088.714111 
	C4029.358887,4104.489746 4016.656006,4121.630371 4003.468506,4138.309570 
	C4001.662354,4140.594238 4000.962158,4143.752441 3999.178223,4147.805176 
	C4004.893311,4148.108887 4008.747559,4148.486328 4012.602295,4148.493164 
	C4099.081543,4148.648926 4185.561035,4148.819824 4272.040039,4148.861816 
	C4313.283203,4148.881836 4354.526367,4148.682129 4395.769043,4148.470215 
	C4401.027832,4148.443359 4406.331055,4148.027344 4411.506836,4147.155273 
	C4412.873047,4146.924805 4414.641602,4144.379395 4414.764648,4142.784180 
	C4414.891113,4141.147461 4413.616699,4138.342285 4412.280273,4137.837891 
	C4406.732422,4135.744141 4401.018555,4133.877441 4395.207031,4132.729004 
	C4318.416016,4117.556152 4248.086914,4087.567383 4182.461914,4039.705811 
M4225.888672,4891.851074 
	C4230.437988,4894.389160 4234.987793,4896.927246 4238.819336,4899.064453 
	C4294.512207,4877.780762 4374.030762,4819.984375 4397.906738,4774.649414 
	C4387.992188,4770.607910 4378.718750,4767.713867 4367.571289,4771.436523 
	C4355.649414,4775.416992 4343.067383,4777.520020 4330.686523,4780.008301 
	C4286.209961,4788.948730 4241.067871,4792.304199 4195.939941,4795.708008 
	C4156.116211,4798.711914 4116.279297,4801.549316 4076.464600,4804.667969 
	C4069.953125,4805.178711 4063.525879,4806.764648 4053.854248,4808.393066 
	C4060.747803,4812.141113 4064.603760,4814.577637 4068.725342,4816.420898 
	C4086.935303,4824.568848 4105.299805,4832.374023 4123.464355,4840.621094 
	C4157.362305,4856.011230 4191.738770,4870.457520 4225.888672,4891.851074 
M5284.618652,2298.888672 
	C5260.109375,2337.747070 5254.451660,2381.885254 5247.476562,2426.522217 
	C5268.215820,2431.017090 5287.224121,2428.747803 5305.756348,2423.160889 
	C5328.551270,2416.289307 5351.033203,2408.381348 5373.939941,2400.825928 
	C5373.939941,2398.958740 5374.253418,2396.986816 5373.894043,2395.146484 
	C5364.835938,2348.788574 5355.741211,2302.437744 5346.494141,2256.117188 
	C5346.022949,2253.758789 5344.137207,2251.682861 5342.746582,2249.180176 
	C5319.124512,2260.048584 5300.633789,2275.792969 5284.618652,2298.888672 
z"/>
<path fill="#FFFFFF" opacity="1.000000" stroke="none" 
	d="
M2567.898926,7.997946 
	C2530.068848,10.791547 2492.177246,12.940209 2454.425293,16.550184 
	C2412.019775,20.605137 2369.638672,25.233696 2327.434326,30.987078 
	C2283.918945,36.919201 2240.540039,43.993237 2197.258301,51.473667 
	C2105.337646,67.360352 2014.940796,89.856026 1925.630493,116.608177 
	C1792.765137,156.406860 1664.082520,206.962570 1539.344360,267.677338 
	C1382.566895,343.986908 1234.563232,434.673462 1095.359497,539.500183 
	C1050.696655,573.133179 1008.324402,609.848572 965.441833,645.795166 
	C903.146240,698.014893 842.551086,752.171265 785.318848,809.941650 
	C725.740112,870.080627 670.058899,933.778503 616.138245,998.981140 
	C498.985962,1140.645630 398.311584,1293.331055 313.470245,1456.348022 
	C214.399689,1646.705322 139.402603,1846.223999 88.056984,2054.627197 
	C66.860672,2140.659668 49.511883,2227.463623 37.170708,2315.170898 
	C29.846558,2367.223145 24.749805,2419.601318 19.289196,2471.899658 
	C14.310153,2519.585449 11.548140,2567.440430 9.627582,2617.516113 
	C6.967786,2619.757568 5.483893,2619.878906 4.000000,2620.000000 
	C4.000000,1748.294556 4.000000,876.589111 4.000000,4.000000 
	C857.416687,4.000000 1710.833740,4.000000 2566.199707,5.002007 
	C2568.065674,6.668659 2567.982178,7.333303 2567.898926,7.997946 
z"/>
<path fill="#84B575" opacity="1.000000" stroke="none" 
	d="
M4.000000,2621.842529 
	C5.483893,2619.878906 6.967786,2619.757568 9.615608,2619.330078 
	C10.885223,2631.445312 10.999459,2643.867188 11.091698,2656.288818 
	C11.121719,2660.331787 10.611310,2664.168945 5.358275,2667.274902 
	C4.000000,2653.228271 4.000000,2638.456787 4.000000,2621.842529 
z"/>
<path fill="#83B676" opacity="1.000000" stroke="none" 
	d="
M10.583754,2795.391602 
	C8.889646,2797.009766 7.500149,2796.764404 5.055326,2796.259521 
	C4.000000,2782.554932 4.000000,2769.109619 4.000000,2753.832275 
	C8.169809,2754.295410 11.189011,2757.224121 11.087822,2762.539795 
	C10.891247,2772.866699 10.940786,2783.198242 10.583754,2795.391602 
z"/>
<path fill="#D6DBBD" opacity="1.000000" stroke="none" 
	d="
M2569.724121,8.310805 
	C2567.982178,7.333303 2568.065674,6.668659 2568.074463,5.002007 
	C2582.771729,4.000000 2597.543213,4.000000 2613.945801,4.776358 
	C2615.576904,5.552715 2615.543213,7.161678 2615.543213,7.161679 
	C2600.878418,7.649008 2586.213867,8.136335 2569.724121,8.310805 
z"/>
<path fill="#D6DBBD" opacity="1.000000" stroke="none" 
	d="
M2866.171143,4.000000 
	C2868.000000,4.000000 2867.925537,5.944164 2868.020020,6.912672 
	C2854.725098,7.841016 2841.335449,7.800853 2826.084473,6.712851 
	C2824.223145,5.665010 2824.000000,4.000000 2824.000000,4.000000 
	C2837.447510,4.000000 2850.894775,4.000000 2866.171143,4.000000 
z"/>
<path fill="#84B575" opacity="1.000000" stroke="none" 
	d="
M2617.269531,7.440934 
	C2615.543213,7.161678 2615.576904,5.552715 2615.788574,4.776358 
	C2625.482178,4.000000 2634.964600,4.000000 2646.223389,4.000021 
	C2645.314453,5.274386 2642.693848,7.447457 2639.930908,7.646386 
	C2632.986572,8.146334 2625.978516,7.754470 2617.269531,7.440934 
z"/>
<path fill="#84B575" opacity="1.000000" stroke="none" 
	d="
M2822.223389,4.000000 
	C2824.000000,4.000000 2824.223145,5.665010 2824.290527,6.502114 
	C2814.201416,7.122978 2804.044434,6.906737 2792.943848,5.345248 
	C2801.482178,4.000000 2810.964600,4.000000 2822.223389,4.000000 
z"/>
<path fill="#FEFFFE" opacity="1.000000" stroke="none" 
	d="
M1438.438965,1994.453735 
	C1428.875854,2004.777100 1420.146118,2013.949951 1411.763550,2023.429810 
	C1401.273560,2035.292236 1400.079468,2048.387939 1407.671143,2062.223633 
	C1412.153564,2070.393066 1416.619995,2078.584717 1421.472290,2086.535400 
	C1579.024780,2344.676025 1736.614136,2602.793945 1894.238525,2860.890625 
	C1902.526367,2874.461182 1910.332153,2888.241455 1917.473877,2904.460693 
	C1912.349609,2905.240967 1908.709961,2906.277588 1905.070923,2906.274658 
	C1867.747559,2906.244873 1830.423584,2905.848877 1793.100830,2905.931641 
	C1677.126953,2906.188965 1561.153442,2906.613525 1445.179810,2906.959717 
	C1437.848511,2906.981689 1430.494263,2907.245850 1423.190308,2906.778809 
	C1406.176270,2905.689941 1392.443359,2898.439941 1383.367920,2883.692139 
	C1378.488892,2875.763672 1373.975098,2867.584229 1369.725220,2859.298340 
	C1293.145142,2709.986572 1216.687866,2560.612061 1140.037720,2411.336182 
	C1129.126343,2390.086670 1117.348145,2369.281982 1106.268311,2348.820312 
	C1090.435059,2346.158936 1080.864624,2354.104248 1072.028687,2363.618408 
	C1056.618652,2380.211182 1041.395752,2396.980957 1025.820557,2413.416748 
	C987.309509,2454.055420 948.784729,2494.683350 909.984131,2535.045166 
	C888.525269,2557.367432 878.456482,2583.578613 878.710205,2614.562256 
	C879.376038,2695.874756 879.440247,2777.192139 879.670776,2858.507568 
	C879.691528,2865.823486 879.909180,2873.256592 878.766357,2880.433350 
	C876.328918,2895.740479 869.603333,2902.538330 854.261658,2905.274170 
	C847.119690,2906.548096 839.702087,2906.690430 832.412476,2906.658203 
	C761.765381,2906.344238 691.119324,2905.646484 620.472290,2905.557129 
	C579.154907,2905.505127 537.836975,2906.512939 496.517883,2906.675781 
	C487.935028,2906.709717 479.178436,2905.896973 470.799896,2904.091797 
	C459.184418,2901.588379 452.576782,2893.647705 451.280853,2881.691895 
	C450.851166,2877.727783 450.634003,2873.719238 450.646667,2869.731934 
	C450.712280,2849.078857 450.999908,2828.425781 451.001129,2807.772705 
	C451.024292,2409.170898 451.015778,2010.568970 451.025360,1611.967041 
	C451.025848,1591.971558 451.130829,1571.976074 451.184479,1551.980591 
	C451.188049,1550.647583 451.124023,1549.312988 451.167755,1547.981689 
	C451.907776,1525.455566 460.128418,1517.372925 483.317169,1516.733521 
	C492.642059,1516.476440 501.979645,1516.671875 511.311432,1516.671753 
	C619.959290,1516.670654 728.607117,1516.645508 837.254944,1516.729858 
	C844.546814,1516.735474 851.927795,1517.009888 859.108704,1518.154663 
	C870.269226,1519.933472 876.747437,1527.246460 878.573669,1538.163696 
	C879.554138,1544.025024 879.448303,1550.105713 879.450134,1556.087524 
	C879.496277,1704.061768 879.491089,1852.036133 879.494995,2000.010376 
	C879.495117,2004.585327 879.494995,2009.160156 879.494995,2014.296753 
	C893.394653,2019.641479 903.259338,2016.157837 911.987183,2005.889038 
	C1038.442383,1857.106567 1164.989624,1708.402222 1291.560791,1559.718262 
	C1296.306396,1554.143555 1301.341919,1548.787964 1306.542236,1543.632935 
	C1325.448608,1524.890991 1348.125122,1515.539307 1374.921509,1515.929321 
	C1407.577271,1516.404785 1440.239014,1516.611206 1472.898438,1516.644409 
	C1598.208008,1516.771729 1723.517456,1516.783447 1848.827026,1516.833984 
	C1851.493042,1516.835083 1854.159790,1516.809326 1856.825073,1516.750732 
	C1867.585205,1516.513794 1876.301636,1520.359497 1882.417725,1529.446045 
	C1869.833496,1548.401245 1746.211426,1677.880249 1438.438965,1994.453735 
z"/>
<path fill="#FEFEFE" opacity="1.000000" stroke="none" 
	d="
M2060.500244,1951.999756 
	C2060.572510,1826.039307 2060.612549,1702.078735 2060.774658,1578.118408 
	C2060.788574,1567.476440 2060.900635,1556.746704 2062.212158,1546.212891 
	C2064.839355,1525.116211 2069.760986,1520.470093 2091.319580,1517.917236 
	C2099.886719,1516.902832 2108.604980,1516.891602 2117.254639,1516.888916 
	C2293.198730,1516.834473 2469.142578,1516.861206 2645.086670,1516.838867 
	C2699.069336,1516.832031 2753.052002,1516.821533 2807.034424,1516.644653 
	C2880.750732,1516.403320 2951.166016,1532.130737 3018.501709,1561.419312 
	C3086.319824,1590.917725 3141.039795,1636.077881 3179.001709,1700.297607 
	C3204.412354,1743.284180 3219.391846,1790.007080 3227.582520,1838.997437 
	C3234.746338,1881.845459 3237.394287,1925.055664 3235.513672,1968.462524 
	C3233.167725,2022.612305 3225.891357,2075.974609 3206.391602,2126.933594 
	C3161.537842,2244.149414 3077.852539,2320.499756 2959.486572,2359.747803 
	C2919.497314,2373.007568 2878.084717,2379.649170 2836.295166,2384.182373 
	C2779.848877,2390.306396 2723.231445,2389.888916 2666.574463,2389.391113 
	C2624.597900,2389.022461 2582.611328,2389.614258 2540.631348,2390.026123 
	C2531.322510,2390.117432 2521.955322,2390.755615 2512.737549,2392.029785 
	C2500.865234,2393.670654 2494.902100,2399.486816 2492.733154,2411.089844 
	C2491.638672,2416.945312 2491.419434,2423.015137 2491.318848,2428.996582 
	C2491.016602,2446.986084 2490.835205,2464.979980 2490.839844,2482.972168 
	C2490.871338,2606.932617 2490.986816,2730.893066 2490.979736,2854.853516 
	C2490.979248,2863.495361 2490.809814,2872.217285 2489.668213,2880.761963 
	C2487.358154,2898.055664 2482.638184,2902.696777 2465.833252,2904.717529 
	C2457.254150,2905.749023 2448.561523,2906.290283 2439.920410,2906.286621 
	C2331.957764,2906.238525 2223.995361,2906.083008 2116.032959,2905.837891 
	C2106.716064,2905.816895 2097.360107,2905.364258 2088.094238,2904.413574 
	C2070.716553,2902.629639 2065.127930,2897.332275 2062.450928,2879.592529 
	C2061.165527,2871.073975 2060.858643,2862.350098 2060.797607,2853.714355 
	C2060.552002,2819.060547 2060.512939,2784.405029 2060.510742,2749.750000 
	C2060.492432,2484.500000 2060.500488,2219.250000 2060.500244,1951.999756 
M2799.745117,2029.175903 
	C2818.066650,1996.963745 2821.762939,1962.102661 2815.375000,1926.539551 
	C2804.954346,1868.525757 2772.607178,1828.628540 2714.628906,1811.879883 
	C2690.854492,1805.011719 2666.555176,1800.589966 2641.844727,1800.122681 
	C2601.209717,1799.354248 2560.555908,1799.589600 2519.909912,1799.410278 
	C2518.577881,1799.404419 2517.240723,1799.430298 2515.914062,1799.541260 
	C2500.922119,1800.796509 2493.252197,1808.109863 2491.428223,1823.386230 
	C2490.798584,1828.657593 2490.828125,1834.026489 2490.825928,1839.351074 
	C2490.793457,1915.993530 2490.798096,1992.636108 2490.828857,2069.278564 
	C2490.830811,2074.606445 2490.840332,2079.957764 2491.305908,2085.257812 
	C2492.782959,2102.065674 2498.476318,2107.670654 2515.122314,2108.225830 
	C2533.769531,2108.847656 2552.431885,2109.457764 2571.084229,2109.368164 
	C2597.051758,2109.243408 2623.068359,2109.322021 2648.967285,2107.735840 
	C2677.710693,2105.975586 2705.470947,2098.914062 2731.975586,2087.376953 
	C2759.559570,2075.369873 2782.309326,2057.604980 2799.745117,2029.175903 
z"/>
<path fill="#FEFEFE" opacity="1.000000" stroke="none" 
	d="
M3907.076660,1565.029907 
	C3907.234375,1622.212891 3907.477051,1677.520874 3907.483154,1732.828857 
	C3907.519287,2066.017822 3907.508545,2399.206543 3907.490723,2732.395508 
	C3907.488770,2773.043945 3907.529785,2813.693848 3907.149902,2854.339355 
	C3907.051025,2864.943115 3905.835449,2875.585693 3904.415039,2886.113525 
	C3902.980957,2896.745850 3895.911133,2902.775146 3885.616943,2903.777588 
	C3872.376465,2905.067139 3859.029785,2905.765869 3845.725830,2905.810791 
	C3785.093994,2906.016113 3724.460693,2905.769043 3663.828857,2905.948486 
	C3620.521240,2906.076904 3577.215088,2906.780029 3533.907715,2906.865723 
	C3523.981934,2906.885254 3513.974854,2905.952148 3504.144043,2904.510498 
	C3490.111816,2902.452637 3481.308594,2893.723633 3478.416748,2880.059082 
	C3476.644531,2871.684570 3475.982178,2862.929688 3475.999023,2854.347656 
	C3476.067139,2819.698730 3476.879150,2785.050537 3476.891602,2750.402100 
	C3476.920898,2669.105713 3476.533691,2587.809082 3476.519775,2506.512695 
	C3476.468262,2203.310791 3476.500244,1900.108887 3476.496826,1596.906982 
	C3476.496582,1581.581177 3476.106445,1566.245850 3476.515381,1550.931519 
	C3477.194824,1525.500732 3483.191162,1519.238037 3508.251221,1517.072754 
	C3514.876709,1516.500366 3521.567383,1516.531494 3528.228027,1516.536255 
	C3637.512939,1516.615234 3746.798096,1516.681519 3856.082520,1516.939697 
	C3865.366943,1516.961670 3874.740234,1517.747559 3883.909912,1519.201172 
	C3897.956543,1521.428223 3902.404785,1525.779175 3904.813965,1539.332275 
	C3906.205566,1547.158325 3906.347900,1555.206665 3907.076660,1565.029907 
z"/>
<path fill="#1E7804" opacity="1.000000" stroke="none" 
	d="
M5035.976074,2827.909424 
	C5061.546875,2784.979980 5086.110840,2743.136230 5112.874512,2701.304199 
	C5118.941895,2703.931641 5124.397949,2705.944092 5129.534180,2708.579834 
	C5149.658203,2718.906494 5169.546387,2729.699219 5189.775879,2739.811523 
	C5215.487793,2752.665039 5242.106445,2762.773926 5271.084961,2765.719727 
	C5276.788574,2766.299561 5282.606934,2768.762207 5287.715332,2771.557617 
	C5298.527344,2777.473633 5309.847168,2780.470947 5322.118652,2780.261963 
	C5332.771484,2780.080811 5343.426758,2779.950195 5354.081055,2779.968018 
	C5358.730469,2779.975830 5363.469727,2779.913330 5368.011230,2780.741699 
	C5382.933105,2783.463379 5390.442383,2792.168213 5388.421387,2807.411621 
	C5382.725586,2850.376953 5383.331055,2893.726562 5379.494141,2936.776611 
	C5377.423340,2960.004639 5373.192383,2982.925781 5364.542969,3004.778320 
	C5363.115723,3008.384277 5361.275391,3011.826416 5359.154785,3016.347656 
	C5354.822266,3015.233887 5351.100098,3014.343262 5347.414062,3013.319092 
	C5299.594727,3000.026855 5250.752441,2995.006348 5201.272949,2995.607910 
	C5149.978516,2996.231445 5099.001953,3001.379150 5048.048340,3006.851807 
	C5010.999023,3010.830811 4973.910645,3014.449707 4936.833008,3018.158203 
	C4935.612305,3018.280518 4934.313477,3017.626709 4931.589355,3016.996338 
	C4933.186035,3012.808350 4934.233398,3008.539307 4936.308105,3004.847656 
	C4969.230957,2946.256592 5002.285156,2887.739502 5035.976074,2827.909424 
z"/>
<path fill="#227B09" opacity="1.000000" stroke="none" 
	d="
M4848.347656,3448.333984 
	C4908.122070,3468.301758 4967.765625,3474.459961 5029.006836,3469.486572 
	C5102.625977,3463.508789 5172.884277,3443.987549 5242.091797,3419.625000 
	C5246.427246,3418.098633 5250.718750,3415.991211 5254.468262,3413.354736 
	C5261.776367,3408.215088 5269.941406,3406.138916 5279.450684,3404.500244 
	C5279.877441,3407.431396 5280.867188,3409.958008 5280.484375,3412.255859 
	C5275.675781,3441.121338 5271.756836,3470.199951 5263.289551,3498.302002 
	C5255.349609,3524.650879 5243.819824,3549.247559 5225.208984,3569.997070 
	C5223.888184,3571.469727 5222.398926,3572.802002 5220.899414,3574.097412 
	C5220.441406,3574.493164 5219.687988,3574.546631 5219.856934,3574.489258 
	C5195.956055,3566.578613 5172.885742,3558.208496 5149.378418,3551.331787 
	C5112.895996,3540.659180 5075.444824,3534.966553 5037.606445,3531.418945 
	C4946.005371,3522.831787 4854.220703,3521.514404 4762.389160,3525.105957 
	C4715.882324,3526.925293 4669.484863,3531.056396 4623.467285,3538.783203 
	C4611.739746,3540.752686 4599.607422,3540.761475 4587.657227,3540.812256 
	C4578.355469,3540.851807 4569.255371,3538.901367 4561.582520,3533.012695 
	C4567.010254,3517.407227 4580.959961,3495.790283 4620.948242,3441.552734 
	C4642.660156,3412.103516 4665.001953,3383.144043 4690.124023,3354.659180 
	C4694.617676,3357.935059 4698.908691,3360.684082 4702.773926,3363.939209 
	C4745.930176,3400.281250 4793.358398,3429.264160 4848.347656,3448.333984 
z"/>
<path fill="#207A08" opacity="1.000000" stroke="none" 
	d="
M4742.565430,4224.972168 
	C4669.111328,4199.990723 4595.785645,4180.773438 4520.982422,4167.210938 
	C4515.099609,4166.145020 4509.181641,4164.892090 4503.573242,4162.899414 
	C4501.577637,4162.190430 4498.918945,4158.689453 4499.277344,4157.058594 
	C4499.879883,4154.310547 4502.219238,4151.399414 4504.642578,4149.765137 
	C4506.617676,4148.432617 4509.772949,4148.739258 4512.421387,4148.533203 
	C4694.513184,4134.379883 4859.994141,4072.744141 5012.388672,3973.679199 
	C5019.065918,3969.338379 5025.782715,3965.058838 5033.115723,3960.342529 
	C5037.074219,3963.033447 5041.320312,3965.069824 5044.452148,3968.214844 
	C5052.528809,3976.326416 5053.315430,3982.914307 5048.393555,3993.574219 
	C5047.559082,3995.381592 5046.598145,3997.142578 5045.559082,3998.841797 
	C4990.319336,4089.200928 4935.067871,4179.552246 4879.788574,4269.887695 
	C4879.109375,4270.997559 4878.069336,4271.887207 4877.228516,4272.845703 
	C4868.601074,4277.642090 4860.711426,4275.179199 4852.590820,4271.120605 
	C4817.416016,4253.543945 4780.990234,4238.899902 4742.565430,4224.972168 
z"/>
<path fill="#207A07" opacity="1.000000" stroke="none" 
	d="
M2684.000000,5364.171387 
	C2622.103760,5363.791504 2562.206543,5363.485352 2502.312012,5362.934570 
	C2495.049316,5362.867676 2487.746582,5361.800293 2480.557861,5360.616699 
	C2473.807617,5359.504883 2468.191162,5356.177246 2464.632080,5349.561035 
	C2465.686768,5348.017090 2466.441406,5345.955566 2467.915771,5344.889160 
	C2551.981445,5284.082031 2636.107910,5223.357910 2719.429932,5163.201660 
	C2721.436768,5163.580566 2722.075195,5163.611328 2722.639404,5163.832031 
	C2723.249756,5164.070801 2723.943604,5164.362305 2724.337646,5164.845215 
	C2726.437012,5167.419434 2728.554932,5169.988770 2730.483887,5172.689941 
	C2771.839111,5230.607910 2813.169189,5288.543457 2854.646240,5346.674805 
	C2850.848633,5358.252441 2841.735596,5361.795898 2831.729004,5363.459961 
	C2825.875488,5364.432617 2819.785645,5364.137207 2813.801758,5364.144043 
	C2771.201172,5364.191895 2728.600586,5364.170410 2684.000000,5364.171387 
z"/>
<path fill="#247C0A" opacity="1.000000" stroke="none" 
	d="
M3548.029297,4579.891602 
	C3569.698242,4602.589844 3589.735596,4624.942871 3611.375000,4645.619629 
	C3646.323730,4679.013184 3686.010254,4705.633789 3731.096436,4723.738770 
	C3732.924561,4724.473145 3734.678223,4725.413574 3736.403809,4726.371094 
	C3736.950684,4726.674805 3737.293213,4727.346680 3738.634277,4728.895020 
	C3738.634277,4731.066406 3739.281006,4734.445312 3738.510742,4737.462402 
	C3736.374756,4745.825684 3731.934814,4749.324707 3724.087891,4747.595215 
	C3681.386719,4738.185059 3637.985840,4740.142090 3594.840088,4740.126465 
	C3526.251953,4740.101074 3457.663574,4741.813477 3389.074707,4742.759766 
	C3377.069824,4742.925293 3365.233398,4743.695312 3353.569580,4747.199707 
	C3347.566895,4749.003418 3341.511719,4747.415039 3337.843018,4741.469238 
	C3333.598145,4734.589355 3334.406006,4724.995117 3340.260498,4719.632324 
	C3399.691406,4665.190918 3459.336670,4610.989746 3523.880127,4562.524414 
	C3525.410156,4561.375488 3527.400635,4560.840332 3530.195312,4559.547852 
	C3535.800049,4565.922363 3541.458740,4572.357910 3548.029297,4579.891602 
z"/>
<path fill="#297F11" opacity="1.000000" stroke="none" 
	d="
M4183.625977,4040.528809 
	C4248.086914,4087.567383 4318.416016,4117.556152 4395.207031,4132.729004 
	C4401.018555,4133.877441 4406.732422,4135.744141 4412.280273,4137.837891 
	C4413.616699,4138.342285 4414.891113,4141.147461 4414.764648,4142.784180 
	C4414.641602,4144.379395 4412.873047,4146.924805 4411.506836,4147.155273 
	C4406.331055,4148.027344 4401.027832,4148.443359 4395.769043,4148.470215 
	C4354.526367,4148.682129 4313.283203,4148.881836 4272.040039,4148.861816 
	C4185.561035,4148.819824 4099.081543,4148.648926 4012.602295,4148.493164 
	C4008.747559,4148.486328 4004.893311,4148.108887 3999.178223,4147.805176 
	C4000.962158,4143.752441 4001.662354,4140.594238 4003.468506,4138.309570 
	C4016.656006,4121.630371 4029.358887,4104.489746 4043.568848,4088.714111 
	C4065.375488,4064.505371 4088.512939,4041.500488 4110.599609,4017.536865 
	C4122.647461,4004.464600 4136.660156,4003.903809 4149.524902,4013.814697 
	C4160.586914,4022.337158 4171.489258,4031.067383 4183.625977,4040.528809 
z"/>
<path fill="#277E0F" opacity="1.000000" stroke="none" 
	d="
M4224.669922,4891.054199 
	C4191.738770,4870.457520 4157.362305,4856.011230 4123.464355,4840.621094 
	C4105.299805,4832.374023 4086.935303,4824.568848 4068.725342,4816.420898 
	C4064.603760,4814.577637 4060.747803,4812.141113 4053.854248,4808.393066 
	C4063.525879,4806.764648 4069.953125,4805.178711 4076.464600,4804.667969 
	C4116.279297,4801.549316 4156.116211,4798.711914 4195.939941,4795.708008 
	C4241.067871,4792.304199 4286.209961,4788.948730 4330.686523,4780.008301 
	C4343.067383,4777.520020 4355.649414,4775.416992 4367.571289,4771.436523 
	C4378.718750,4767.713867 4387.992188,4770.607910 4397.906738,4774.649414 
	C4374.030762,4819.984375 4294.512207,4877.780762 4238.819336,4899.064453 
	C4234.987793,4896.927246 4230.437988,4894.389160 4224.669922,4891.054199 
z"/>
<path fill="#287F10" opacity="1.000000" stroke="none" 
	d="
M5285.456055,2297.701172 
	C5300.633789,2275.792969 5319.124512,2260.048584 5342.746582,2249.180176 
	C5344.137207,2251.682861 5346.022949,2253.758789 5346.494141,2256.117188 
	C5355.741211,2302.437744 5364.835938,2348.788574 5373.894043,2395.146484 
	C5374.253418,2396.986816 5373.939941,2398.958740 5373.939941,2400.825928 
	C5351.033203,2408.381348 5328.551270,2416.289307 5305.756348,2423.160889 
	C5287.224121,2428.747803 5268.215820,2431.017090 5247.476562,2426.522217 
	C5254.451660,2381.885254 5260.109375,2337.747070 5285.456055,2297.701172 
z"/>
<path fill="#1D7903" opacity="1.000000" stroke="none" 
	d="
M2798.991699,2030.448120 
	C2782.309326,2057.604980 2759.559570,2075.369873 2731.975586,2087.376953 
	C2705.470947,2098.914062 2677.710693,2105.975586 2648.967285,2107.735840 
	C2623.068359,2109.322021 2597.051758,2109.243408 2571.084229,2109.368164 
	C2552.431885,2109.457764 2533.769531,2108.847656 2515.122314,2108.225830 
	C2498.476318,2107.670654 2492.782959,2102.065674 2491.305908,2085.257812 
	C2490.840332,2079.957764 2490.830811,2074.606445 2490.828857,2069.278564 
	C2490.798096,1992.636108 2490.793457,1915.993530 2490.825928,1839.351074 
	C2490.828125,1834.026489 2490.798584,1828.657593 2491.428223,1823.386230 
	C2493.252197,1808.109863 2500.922119,1800.796509 2515.914062,1799.541260 
	C2517.240723,1799.430298 2518.577881,1799.404419 2519.909912,1799.410278 
	C2560.555908,1799.589600 2601.209717,1799.354248 2641.844727,1800.122681 
	C2666.555176,1800.589966 2690.854492,1805.011719 2714.628906,1811.879883 
	C2772.607178,1828.628540 2804.954346,1868.525757 2815.375000,1926.539551 
	C2821.762939,1962.102661 2818.066650,1996.963745 2798.991699,2030.448120 
z"/>
</svg>